<svg width="152" height="28" viewBox="0 0 152 28" fill="none" xmlns="http://www.w3.org/2000/svg">
<g clip-path="url(#clip0_553_7724)">
<path fill-rule="evenodd" clip-rule="evenodd" d="M12.9774 2.06568C13.2772 1.85577 13.6342 1.74316 14.0002 1.74316C14.3661 1.74316 14.7232 1.85577 15.0229 2.06568C15.3185 2.27275 15.5443 2.56462 15.6704 2.90259L18.0728 8.95209L18.0799 8.97078C18.0822 8.97676 18.0861 8.98196 18.0912 8.98575C18.0963 8.98954 18.1024 8.99176 18.1088 8.99213L18.1142 8.99244L24.5673 9.40809C26.2425 9.51686 26.815 11.6138 25.5958 12.6273C25.5956 12.6275 25.5954 12.6277 25.5951 12.6278L20.6528 16.7501L20.6499 16.7525C20.6388 16.7617 20.6305 16.7738 20.626 16.7875C20.6216 16.8009 20.621 16.8152 20.6241 16.8288C20.6242 16.8292 20.6243 16.8296 20.6244 16.8299L22.22 23.1031C22.6064 24.6281 20.9596 26.0015 19.5271 25.0979L19.5249 25.0965L14.0124 21.5965C14.0089 21.5943 14.0043 21.5928 14.0002 21.5928C13.996 21.5928 13.9919 21.594 13.9884 21.5962L13.987 21.5971L8.85899 24.8445C8.85872 24.8447 8.85845 24.8448 8.85819 24.845C7.28669 25.8441 5.47162 24.3251 5.90063 22.6436C5.90056 22.6438 5.9007 22.6433 5.90063 22.6436L7.37591 16.8299C7.376 16.8296 7.37608 16.8293 7.37615 16.8289C7.37936 16.8152 7.37873 16.8009 7.37432 16.7875C7.3698 16.7738 7.36151 16.7617 7.35039 16.7525L7.34752 16.7501L2.40518 12.6278C2.40495 12.6276 2.40472 12.6275 2.40448 12.6273C1.18535 11.6138 1.75738 9.51689 3.43252 9.40812L9.89152 8.99211C9.89789 8.99174 9.90401 8.98954 9.90913 8.98575C9.91426 8.98196 9.91817 8.97676 9.92038 8.97078L9.92756 8.95209L12.3299 2.90259C12.456 2.56462 12.6818 2.27275 12.9774 2.06568ZM14.0002 3.49316C13.9934 3.49316 13.9869 3.49524 13.9813 3.4991C13.9758 3.50296 13.9716 3.50843 13.9693 3.51476C13.9664 3.52275 13.9634 3.53069 13.9603 3.53859L11.5571 9.59024C11.4359 9.9104 11.2252 10.189 10.9499 10.3927C10.6722 10.598 10.341 10.7183 9.99629 10.739L3.54592 11.1544C3.54583 11.1544 3.54602 11.1544 3.54592 11.1544C3.53318 11.1553 3.52792 11.1575 3.52782 11.1575C3.52743 11.1577 3.5271 11.1578 3.52598 11.1587C3.5228 11.1614 3.51204 11.1728 3.50479 11.1962C3.49751 11.2198 3.4986 11.2401 3.50171 11.2519C3.50307 11.2571 3.50482 11.2609 3.50685 11.2641C3.5087 11.267 3.51302 11.2731 3.52326 11.2816L3.52468 11.2828L8.46555 15.4038C8.46613 15.4043 8.4667 15.4048 8.46727 15.4052C8.73165 15.6244 8.92891 15.9136 9.03639 16.2398C9.14411 16.5667 9.15729 16.9173 9.07441 17.2514L9.07328 17.2559L7.59635 23.076C7.56474 23.1998 7.60835 23.2956 7.68827 23.3564C7.72918 23.3875 7.7705 23.4008 7.80315 23.4031C7.83015 23.405 7.86755 23.4011 7.91946 23.3681L13.0494 20.1195C13.0499 20.1192 13.0503 20.1189 13.0508 20.1186C13.3347 19.9385 13.6639 19.8428 14.0002 19.8428C14.3367 19.8428 14.6663 19.9386 14.9504 20.1192C14.9502 20.119 14.9506 20.1193 14.9504 20.1192L20.4607 23.6178C20.4605 23.6176 20.461 23.6179 20.4607 23.6178C20.4707 23.624 20.4772 23.6264 20.479 23.627C20.4813 23.6265 20.4889 23.6244 20.4993 23.6165C20.5125 23.6065 20.521 23.594 20.5248 23.5837C20.5265 23.5791 20.5277 23.5741 20.528 23.5679C20.5284 23.562 20.5282 23.551 20.5239 23.5338C20.5239 23.5337 20.5239 23.5338 20.5239 23.5338L18.9259 17.2514C18.843 16.9173 18.8562 16.5667 18.9639 16.2398C19.0714 15.9136 19.2687 15.6243 19.5332 15.4051C19.5337 15.4047 19.5342 15.4043 19.5348 15.4038L24.4771 11.2816C24.4873 11.2731 24.4916 11.267 24.4935 11.2641C24.4955 11.2609 24.4972 11.2571 24.4986 11.2519C24.5017 11.2401 24.5028 11.2198 24.4955 11.1962C24.4883 11.1728 24.4775 11.1614 24.4743 11.1587C24.4733 11.1578 24.4729 11.1577 24.4726 11.1575C24.4725 11.1575 24.4674 11.1553 24.4547 11.1545C24.4546 11.1545 24.4548 11.1545 24.4547 11.1545L18.0072 10.7392C18.0061 10.7391 18.0051 10.7391 18.004 10.739C17.6594 10.7183 17.3281 10.598 17.0505 10.3927C16.7751 10.189 16.5644 9.9104 16.4432 9.59024L14.0401 3.53859C14.0369 3.53069 14.0339 3.52275 14.031 3.51476C14.0287 3.50843 14.0245 3.50297 14.019 3.4991C14.0135 3.49524 14.0069 3.49316 14.0002 3.49316Z" fill="#8381D9"/>
</g>
<g clip-path="url(#clip1_553_7724)">
<path fill-rule="evenodd" clip-rule="evenodd" d="M12.9774 2.06568C13.2772 1.85577 13.6342 1.74316 14.0002 1.74316C14.3661 1.74316 14.7232 1.85577 15.0229 2.06568C15.3185 2.27275 15.5443 2.56462 15.6704 2.90259L18.0728 8.95209L18.0799 8.97078C18.0822 8.97676 18.0861 8.98196 18.0912 8.98575C18.0963 8.98954 18.1024 8.99176 18.1088 8.99213L18.1142 8.99244L24.5673 9.40809C26.2425 9.51686 26.815 11.6138 25.5958 12.6273C25.5956 12.6275 25.5954 12.6277 25.5951 12.6278L20.6528 16.7501L20.6499 16.7525C20.6388 16.7617 20.6305 16.7738 20.626 16.7875C20.6216 16.8009 20.621 16.8152 20.6241 16.8288C20.6242 16.8292 20.6243 16.8296 20.6244 16.8299L22.22 23.1031C22.6064 24.6281 20.9596 26.0015 19.5271 25.0979L19.5249 25.0965L14.0124 21.5965C14.0089 21.5943 14.0043 21.5928 14.0002 21.5928C13.996 21.5928 13.9919 21.594 13.9884 21.5962L13.987 21.5971L8.85899 24.8445C8.85872 24.8447 8.85845 24.8448 8.85819 24.845C7.28669 25.8441 5.47162 24.3251 5.90063 22.6436C5.90056 22.6438 5.9007 22.6433 5.90063 22.6436L7.37591 16.8299C7.376 16.8296 7.37608 16.8293 7.37615 16.8289C7.37936 16.8152 7.37873 16.8009 7.37432 16.7875C7.3698 16.7738 7.36151 16.7617 7.35039 16.7525L7.34752 16.7501L2.40518 12.6278C2.40495 12.6276 2.40472 12.6275 2.40448 12.6273C1.18535 11.6138 1.75738 9.51689 3.43252 9.40812L9.89152 8.99211C9.89789 8.99174 9.90401 8.98954 9.90913 8.98575C9.91426 8.98196 9.91817 8.97676 9.92038 8.97078L9.92756 8.95209L12.3299 2.90259C12.456 2.56462 12.6818 2.27275 12.9774 2.06568ZM14.0002 3.49316C13.9934 3.49316 13.9869 3.49524 13.9813 3.4991C13.9758 3.50296 13.9716 3.50843 13.9693 3.51476C13.9664 3.52275 13.9634 3.53069 13.9603 3.53859L11.5571 9.59024C11.4359 9.9104 11.2252 10.189 10.9499 10.3927C10.6722 10.598 10.341 10.7183 9.99629 10.739L3.54592 11.1544C3.54583 11.1544 3.54602 11.1544 3.54592 11.1544C3.53318 11.1553 3.52792 11.1575 3.52782 11.1575C3.52743 11.1577 3.5271 11.1578 3.52598 11.1587C3.5228 11.1614 3.51204 11.1728 3.50479 11.1962C3.49751 11.2198 3.4986 11.2401 3.50171 11.2519C3.50307 11.2571 3.50482 11.2609 3.50685 11.2641C3.5087 11.267 3.51302 11.2731 3.52326 11.2816L3.52468 11.2828L8.46555 15.4038C8.46613 15.4043 8.4667 15.4048 8.46727 15.4052C8.73165 15.6244 8.92891 15.9136 9.03639 16.2398C9.14411 16.5667 9.15729 16.9173 9.07441 17.2514L9.07328 17.2559L7.59635 23.076C7.56474 23.1998 7.60835 23.2956 7.68827 23.3564C7.72918 23.3875 7.7705 23.4008 7.80315 23.4031C7.83015 23.405 7.86755 23.4011 7.91946 23.3681L13.0494 20.1195C13.0499 20.1192 13.0503 20.1189 13.0508 20.1186C13.3347 19.9385 13.6639 19.8428 14.0002 19.8428C14.3367 19.8428 14.6663 19.9386 14.9504 20.1192C14.9502 20.119 14.9506 20.1193 14.9504 20.1192L20.4607 23.6178C20.4605 23.6176 20.461 23.6179 20.4607 23.6178C20.4707 23.624 20.4772 23.6264 20.479 23.627C20.4813 23.6265 20.4889 23.6244 20.4993 23.6165C20.5125 23.6065 20.521 23.594 20.5248 23.5837C20.5265 23.5791 20.5277 23.5741 20.528 23.5679C20.5284 23.562 20.5282 23.551 20.5239 23.5338C20.5239 23.5337 20.5239 23.5338 20.5239 23.5338L18.9259 17.2514C18.843 16.9173 18.8562 16.5667 18.9639 16.2398C19.0714 15.9136 19.2687 15.6243 19.5332 15.4051C19.5337 15.4047 19.5342 15.4043 19.5348 15.4038L24.4771 11.2816C24.4873 11.2731 24.4916 11.267 24.4935 11.2641C24.4955 11.2609 24.4972 11.2571 24.4986 11.2519C24.5017 11.2401 24.5028 11.2198 24.4955 11.1962C24.4883 11.1728 24.4775 11.1614 24.4743 11.1587C24.4733 11.1578 24.4729 11.1577 24.4726 11.1575C24.4725 11.1575 24.4674 11.1553 24.4547 11.1545C24.4546 11.1545 24.4548 11.1545 24.4547 11.1545L18.0072 10.7392C18.0061 10.7391 18.0051 10.7391 18.004 10.739C17.6594 10.7183 17.3281 10.598 17.0505 10.3927C16.7751 10.189 16.5644 9.9104 16.4432 9.59024L14.0401 3.53859C14.0369 3.53069 14.0339 3.52275 14.031 3.51476C14.0287 3.50843 14.0245 3.50297 14.019 3.4991C14.0135 3.49524 14.0069 3.49316 14.0002 3.49316Z" fill="#8381D9"/>
</g>
<g clip-path="url(#clip2_553_7724)">
<path fill-rule="evenodd" clip-rule="evenodd" d="M43.9774 2.06568C44.2772 1.85577 44.6342 1.74316 45.0002 1.74316C45.3661 1.74316 45.7232 1.85577 46.0229 2.06568C46.3185 2.27275 46.5443 2.56462 46.6704 2.90259L49.0728 8.95209L49.0799 8.97078C49.0822 8.97676 49.0861 8.98196 49.0912 8.98575C49.0963 8.98954 49.1024 8.99176 49.1088 8.99213L49.1142 8.99244L55.5673 9.40809C57.2425 9.51686 57.815 11.6138 56.5958 12.6273C56.5956 12.6275 56.5954 12.6277 56.5951 12.6278L51.6528 16.7501L51.6499 16.7525C51.6388 16.7617 51.6305 16.7738 51.626 16.7875C51.6216 16.8009 51.621 16.8152 51.6241 16.8288C51.6242 16.8292 51.6243 16.8296 51.6244 16.8299L53.22 23.1031C53.6064 24.6281 51.9596 26.0015 50.5271 25.0979L50.5249 25.0965L45.0124 21.5965C45.0089 21.5943 45.0043 21.5928 45.0002 21.5928C44.996 21.5928 44.9919 21.594 44.9884 21.5962L44.987 21.5971L39.859 24.8445C39.8587 24.8447 39.8585 24.8448 39.8582 24.845C38.2867 25.8441 36.4716 24.3251 36.9006 22.6436C36.9006 22.6438 36.9007 22.6433 36.9006 22.6436L38.3759 16.8299C38.376 16.8296 38.3761 16.8293 38.3762 16.8289C38.3794 16.8152 38.3787 16.8009 38.3743 16.7875C38.3698 16.7738 38.3615 16.7617 38.3504 16.7525L38.3475 16.7501L33.4052 12.6278C33.4049 12.6276 33.4047 12.6275 33.4045 12.6273C32.1854 11.6138 32.7574 9.51689 34.4325 9.40812L40.8915 8.99211C40.8979 8.99174 40.904 8.98954 40.9091 8.98575C40.9143 8.98196 40.9182 8.97676 40.9204 8.97078L40.9276 8.95209L43.3299 2.90259C43.456 2.56462 43.6818 2.27275 43.9774 2.06568ZM45.0002 3.49316C44.9934 3.49316 44.9869 3.49524 44.9813 3.4991C44.9758 3.50296 44.9716 3.50843 44.9693 3.51476C44.9664 3.52275 44.9634 3.53069 44.9603 3.53859L42.5571 9.59024C42.4359 9.9104 42.2252 10.189 41.9499 10.3927C41.6722 10.598 41.341 10.7183 40.9963 10.739L34.5459 11.1544C34.5458 11.1544 34.546 11.1544 34.5459 11.1544C34.5332 11.1553 34.5279 11.1575 34.5278 11.1575C34.5274 11.1577 34.5271 11.1578 34.526 11.1587C34.5228 11.1614 34.512 11.1728 34.5048 11.1962C34.4975 11.2198 34.4986 11.2401 34.5017 11.2519C34.5031 11.2571 34.5048 11.2609 34.5068 11.2641C34.5087 11.267 34.513 11.2731 34.5233 11.2816L34.5247 11.2828L39.4656 15.4038C39.4661 15.4043 39.4667 15.4048 39.4673 15.4052C39.7316 15.6244 39.9289 15.9136 40.0364 16.2398C40.1441 16.5667 40.1573 16.9173 40.0744 17.2514L40.0733 17.2559L38.5964 23.076C38.5647 23.1998 38.6083 23.2956 38.6883 23.3564C38.7292 23.3875 38.7705 23.4008 38.8031 23.4031C38.8302 23.405 38.8675 23.4011 38.9195 23.3681L44.0494 20.1195C44.0499 20.1192 44.0503 20.1189 44.0508 20.1186C44.3347 19.9385 44.6639 19.8428 45.0002 19.8428C45.3367 19.8428 45.6663 19.9386 45.9504 20.1192C45.9502 20.119 45.9506 20.1193 45.9504 20.1192L51.4607 23.6178C51.4605 23.6176 51.461 23.6179 51.4607 23.6178C51.4707 23.624 51.4772 23.6264 51.479 23.627C51.4813 23.6265 51.4889 23.6244 51.4993 23.6165C51.5125 23.6065 51.521 23.594 51.5248 23.5837C51.5265 23.5791 51.5277 23.5741 51.528 23.5679C51.5284 23.562 51.5282 23.551 51.5239 23.5338C51.5239 23.5337 51.5239 23.5338 51.5239 23.5338L49.9259 17.2514C49.843 16.9173 49.8562 16.5667 49.9639 16.2398C50.0714 15.9136 50.2687 15.6243 50.5332 15.4051C50.5337 15.4047 50.5342 15.4043 50.5348 15.4038L55.4771 11.2816C55.4873 11.2731 55.4916 11.267 55.4935 11.2641C55.4955 11.2609 55.4972 11.2571 55.4986 11.2519C55.5017 11.2401 55.5028 11.2198 55.4955 11.1962C55.4883 11.1728 55.4775 11.1614 55.4743 11.1587C55.4733 11.1578 55.4729 11.1577 55.4726 11.1575C55.4725 11.1575 55.4674 11.1553 55.4547 11.1545C55.4546 11.1545 55.4548 11.1545 55.4547 11.1545L49.0072 10.7392C49.0061 10.7391 49.0051 10.7391 49.004 10.739C48.6594 10.7183 48.3281 10.598 48.0505 10.3927C47.7751 10.189 47.5644 9.9104 47.4432 9.59024L45.0401 3.53859C45.0369 3.53069 45.0339 3.52275 45.031 3.51476C45.0287 3.50843 45.0245 3.50297 45.019 3.4991C45.0135 3.49524 45.0069 3.49316 45.0002 3.49316Z" fill="#8381D9"/>
</g>
<g clip-path="url(#clip3_553_7724)">
<path fill-rule="evenodd" clip-rule="evenodd" d="M43.9774 2.06568C44.2772 1.85577 44.6342 1.74316 45.0002 1.74316C45.3661 1.74316 45.7232 1.85577 46.0229 2.06568C46.3185 2.27275 46.5443 2.56462 46.6704 2.90259L49.0728 8.95209L49.0799 8.97078C49.0822 8.97676 49.0861 8.98196 49.0912 8.98575C49.0963 8.98954 49.1024 8.99176 49.1088 8.99213L49.1142 8.99244L55.5673 9.40809C57.2425 9.51686 57.815 11.6138 56.5958 12.6273C56.5956 12.6275 56.5954 12.6277 56.5951 12.6278L51.6528 16.7501L51.6499 16.7525C51.6388 16.7617 51.6305 16.7738 51.626 16.7875C51.6216 16.8009 51.621 16.8152 51.6241 16.8288C51.6242 16.8292 51.6243 16.8296 51.6244 16.8299L53.22 23.1031C53.6064 24.6281 51.9596 26.0015 50.5271 25.0979L50.5249 25.0965L45.0124 21.5965C45.0089 21.5943 45.0043 21.5928 45.0002 21.5928C44.996 21.5928 44.9919 21.594 44.9884 21.5962L44.987 21.5971L39.859 24.8445C39.8587 24.8447 39.8585 24.8448 39.8582 24.845C38.2867 25.8441 36.4716 24.3251 36.9006 22.6436C36.9006 22.6438 36.9007 22.6433 36.9006 22.6436L38.3759 16.8299C38.376 16.8296 38.3761 16.8293 38.3762 16.8289C38.3794 16.8152 38.3787 16.8009 38.3743 16.7875C38.3698 16.7738 38.3615 16.7617 38.3504 16.7525L38.3475 16.7501L33.4052 12.6278C33.4049 12.6276 33.4047 12.6275 33.4045 12.6273C32.1854 11.6138 32.7574 9.51689 34.4325 9.40812L40.8915 8.99211C40.8979 8.99174 40.904 8.98954 40.9091 8.98575C40.9143 8.98196 40.9182 8.97676 40.9204 8.97078L40.9276 8.95209L43.3299 2.90259C43.456 2.56462 43.6818 2.27275 43.9774 2.06568ZM45.0002 3.49316C44.9934 3.49316 44.9869 3.49524 44.9813 3.4991C44.9758 3.50296 44.9716 3.50843 44.9693 3.51476C44.9664 3.52275 44.9634 3.53069 44.9603 3.53859L42.5571 9.59024C42.4359 9.9104 42.2252 10.189 41.9499 10.3927C41.6722 10.598 41.341 10.7183 40.9963 10.739L34.5459 11.1544C34.5458 11.1544 34.546 11.1544 34.5459 11.1544C34.5332 11.1553 34.5279 11.1575 34.5278 11.1575C34.5274 11.1577 34.5271 11.1578 34.526 11.1587C34.5228 11.1614 34.512 11.1728 34.5048 11.1962C34.4975 11.2198 34.4986 11.2401 34.5017 11.2519C34.5031 11.2571 34.5048 11.2609 34.5068 11.2641C34.5087 11.267 34.513 11.2731 34.5233 11.2816L34.5247 11.2828L39.4656 15.4038C39.4661 15.4043 39.4667 15.4048 39.4673 15.4052C39.7316 15.6244 39.9289 15.9136 40.0364 16.2398C40.1441 16.5667 40.1573 16.9173 40.0744 17.2514L40.0733 17.2559L38.5964 23.076C38.5647 23.1998 38.6083 23.2956 38.6883 23.3564C38.7292 23.3875 38.7705 23.4008 38.8031 23.4031C38.8302 23.405 38.8675 23.4011 38.9195 23.3681L44.0494 20.1195C44.0499 20.1192 44.0503 20.1189 44.0508 20.1186C44.3347 19.9385 44.6639 19.8428 45.0002 19.8428C45.3367 19.8428 45.6663 19.9386 45.9504 20.1192C45.9502 20.119 45.9506 20.1193 45.9504 20.1192L51.4607 23.6178C51.4605 23.6176 51.461 23.6179 51.4607 23.6178C51.4707 23.624 51.4772 23.6264 51.479 23.627C51.4813 23.6265 51.4889 23.6244 51.4993 23.6165C51.5125 23.6065 51.521 23.594 51.5248 23.5837C51.5265 23.5791 51.5277 23.5741 51.528 23.5679C51.5284 23.562 51.5282 23.551 51.5239 23.5338C51.5239 23.5337 51.5239 23.5338 51.5239 23.5338L49.9259 17.2514C49.843 16.9173 49.8562 16.5667 49.9639 16.2398C50.0714 15.9136 50.2687 15.6243 50.5332 15.4051C50.5337 15.4047 50.5342 15.4043 50.5348 15.4038L55.4771 11.2816C55.4873 11.2731 55.4916 11.267 55.4935 11.2641C55.4955 11.2609 55.4972 11.2571 55.4986 11.2519C55.5017 11.2401 55.5028 11.2198 55.4955 11.1962C55.4883 11.1728 55.4775 11.1614 55.4743 11.1587C55.4733 11.1578 55.4729 11.1577 55.4726 11.1575C55.4725 11.1575 55.4674 11.1553 55.4547 11.1545C55.4546 11.1545 55.4548 11.1545 55.4547 11.1545L49.0072 10.7392C49.0061 10.7391 49.0051 10.7391 49.004 10.739C48.6594 10.7183 48.3281 10.598 48.0505 10.3927C47.7751 10.189 47.5644 9.9104 47.4432 9.59024L45.0401 3.53859C45.0369 3.53069 45.0339 3.52275 45.031 3.51476C45.0287 3.50843 45.0245 3.50297 45.019 3.4991C45.0135 3.49524 45.0069 3.49316 45.0002 3.49316Z" fill="#8381D9"/>
</g>
<g clip-path="url(#clip4_553_7724)">
<path fill-rule="evenodd" clip-rule="evenodd" d="M74.9774 2.06568C75.2772 1.85577 75.6342 1.74316 76.0002 1.74316C76.3661 1.74316 76.7232 1.85577 77.0229 2.06568C77.3185 2.27275 77.5443 2.56462 77.6704 2.90259L80.0728 8.95209L80.0799 8.97078C80.0822 8.97676 80.0861 8.98196 80.0912 8.98575C80.0963 8.98954 80.1024 8.99176 80.1088 8.99213L80.1142 8.99244L86.5673 9.40809C88.2425 9.51686 88.815 11.6138 87.5958 12.6273C87.5956 12.6275 87.5954 12.6277 87.5951 12.6278L82.6528 16.7501L82.6499 16.7525C82.6388 16.7617 82.6305 16.7738 82.626 16.7875C82.6216 16.8009 82.621 16.8152 82.6241 16.8288C82.6242 16.8292 82.6243 16.8296 82.6244 16.8299L84.22 23.1031C84.6064 24.6281 82.9596 26.0015 81.5271 25.0979L81.5249 25.0965L76.0124 21.5965C76.0089 21.5943 76.0043 21.5928 76.0002 21.5928C75.996 21.5928 75.9919 21.594 75.9884 21.5962L75.987 21.5971L70.859 24.8445C70.8587 24.8447 70.8585 24.8448 70.8582 24.845C69.2867 25.8441 67.4716 24.3251 67.9006 22.6436C67.9006 22.6438 67.9007 22.6433 67.9006 22.6436L69.3759 16.8299C69.376 16.8296 69.3761 16.8293 69.3762 16.8289C69.3794 16.8152 69.3787 16.8009 69.3743 16.7875C69.3698 16.7738 69.3615 16.7617 69.3504 16.7525L69.3475 16.7501L64.4052 12.6278C64.4049 12.6276 64.4047 12.6275 64.4045 12.6273C63.1854 11.6138 63.7574 9.51689 65.4325 9.40812L71.8915 8.99211C71.8979 8.99174 71.904 8.98954 71.9091 8.98575C71.9143 8.98196 71.9182 8.97676 71.9204 8.97078L71.9276 8.95209L74.3299 2.90259C74.456 2.56462 74.6818 2.27275 74.9774 2.06568ZM76.0002 3.49316C75.9934 3.49316 75.9869 3.49524 75.9813 3.4991C75.9758 3.50296 75.9716 3.50843 75.9693 3.51476C75.9664 3.52275 75.9634 3.53069 75.9603 3.53859L73.5571 9.59024C73.4359 9.9104 73.2252 10.189 72.9499 10.3927C72.6722 10.598 72.341 10.7183 71.9963 10.739L65.5459 11.1544C65.5458 11.1544 65.546 11.1544 65.5459 11.1544C65.5332 11.1553 65.5279 11.1575 65.5278 11.1575C65.5274 11.1577 65.5271 11.1578 65.526 11.1587C65.5228 11.1614 65.512 11.1728 65.5048 11.1962C65.4975 11.2198 65.4986 11.2401 65.5017 11.2519C65.5031 11.2571 65.5048 11.2609 65.5068 11.2641C65.5087 11.267 65.513 11.2731 65.5233 11.2816L65.5247 11.2828L70.4656 15.4038C70.4661 15.4043 70.4667 15.4048 70.4673 15.4052C70.7316 15.6244 70.9289 15.9136 71.0364 16.2398C71.1441 16.5667 71.1573 16.9173 71.0744 17.2514L71.0733 17.2559L69.5964 23.076C69.5647 23.1998 69.6083 23.2956 69.6883 23.3564C69.7292 23.3875 69.7705 23.4008 69.8031 23.4031C69.8302 23.405 69.8675 23.4011 69.9195 23.3681L75.0494 20.1195C75.0499 20.1192 75.0503 20.1189 75.0508 20.1186C75.3347 19.9385 75.6639 19.8428 76.0002 19.8428C76.3367 19.8428 76.6663 19.9386 76.9504 20.1192C76.9502 20.119 76.9506 20.1193 76.9504 20.1192L82.4607 23.6178C82.4605 23.6176 82.461 23.6179 82.4607 23.6178C82.4707 23.624 82.4772 23.6264 82.479 23.627C82.4813 23.6265 82.4889 23.6244 82.4993 23.6165C82.5125 23.6065 82.521 23.594 82.5248 23.5837C82.5265 23.5791 82.5277 23.5741 82.528 23.5679C82.5284 23.562 82.5282 23.551 82.5239 23.5338C82.5239 23.5337 82.5239 23.5338 82.5239 23.5338L80.9259 17.2514C80.843 16.9173 80.8562 16.5667 80.9639 16.2398C81.0714 15.9136 81.2687 15.6243 81.5332 15.4051C81.5337 15.4047 81.5342 15.4043 81.5348 15.4038L86.4771 11.2816C86.4873 11.2731 86.4916 11.267 86.4935 11.2641C86.4955 11.2609 86.4972 11.2571 86.4986 11.2519C86.5017 11.2401 86.5028 11.2198 86.4955 11.1962C86.4883 11.1728 86.4775 11.1614 86.4743 11.1587C86.4733 11.1578 86.4729 11.1577 86.4726 11.1575C86.4725 11.1575 86.4674 11.1553 86.4547 11.1545C86.4546 11.1545 86.4548 11.1545 86.4547 11.1545L80.0072 10.7392C80.0061 10.7391 80.0051 10.7391 80.004 10.739C79.6594 10.7183 79.3281 10.598 79.0505 10.3927C78.7751 10.189 78.5644 9.9104 78.4432 9.59024L76.0401 3.53859C76.0369 3.53069 76.0339 3.52275 76.031 3.51476C76.0287 3.50843 76.0245 3.50297 76.019 3.4991C76.0135 3.49524 76.0069 3.49316 76.0002 3.49316Z" fill="#8381D9"/>
</g>
<g clip-path="url(#clip5_553_7724)">
<path fill-rule="evenodd" clip-rule="evenodd" d="M74.9774 2.06568C75.2772 1.85577 75.6342 1.74316 76.0002 1.74316C76.3661 1.74316 76.7232 1.85577 77.0229 2.06568C77.3185 2.27275 77.5443 2.56462 77.6704 2.90259L80.0728 8.95209L80.0799 8.97078C80.0822 8.97676 80.0861 8.98196 80.0912 8.98575C80.0963 8.98954 80.1024 8.99176 80.1088 8.99213L80.1142 8.99244L86.5673 9.40809C88.2425 9.51686 88.815 11.6138 87.5958 12.6273C87.5956 12.6275 87.5954 12.6277 87.5951 12.6278L82.6528 16.7501L82.6499 16.7525C82.6388 16.7617 82.6305 16.7738 82.626 16.7875C82.6216 16.8009 82.621 16.8152 82.6241 16.8288C82.6242 16.8292 82.6243 16.8296 82.6244 16.8299L84.22 23.1031C84.6064 24.6281 82.9596 26.0015 81.5271 25.0979L81.5249 25.0965L76.0124 21.5965C76.0089 21.5943 76.0043 21.5928 76.0002 21.5928C75.996 21.5928 75.9919 21.594 75.9884 21.5962L75.987 21.5971L70.859 24.8445C70.8587 24.8447 70.8585 24.8448 70.8582 24.845C69.2867 25.8441 67.4716 24.3251 67.9006 22.6436C67.9006 22.6438 67.9007 22.6433 67.9006 22.6436L69.3759 16.8299C69.376 16.8296 69.3761 16.8293 69.3762 16.8289C69.3794 16.8152 69.3787 16.8009 69.3743 16.7875C69.3698 16.7738 69.3615 16.7617 69.3504 16.7525L69.3475 16.7501L64.4052 12.6278C64.4049 12.6276 64.4047 12.6275 64.4045 12.6273C63.1854 11.6138 63.7574 9.51689 65.4325 9.40812L71.8915 8.99211C71.8979 8.99174 71.904 8.98954 71.9091 8.98575C71.9143 8.98196 71.9182 8.97676 71.9204 8.97078L71.9276 8.95209L74.3299 2.90259C74.456 2.56462 74.6818 2.27275 74.9774 2.06568ZM76.0002 3.49316C75.9934 3.49316 75.9869 3.49524 75.9813 3.4991C75.9758 3.50296 75.9716 3.50843 75.9693 3.51476C75.9664 3.52275 75.9634 3.53069 75.9603 3.53859L73.5571 9.59024C73.4359 9.9104 73.2252 10.189 72.9499 10.3927C72.6722 10.598 72.341 10.7183 71.9963 10.739L65.5459 11.1544C65.5458 11.1544 65.546 11.1544 65.5459 11.1544C65.5332 11.1553 65.5279 11.1575 65.5278 11.1575C65.5274 11.1577 65.5271 11.1578 65.526 11.1587C65.5228 11.1614 65.512 11.1728 65.5048 11.1962C65.4975 11.2198 65.4986 11.2401 65.5017 11.2519C65.5031 11.2571 65.5048 11.2609 65.5068 11.2641C65.5087 11.267 65.513 11.2731 65.5233 11.2816L65.5247 11.2828L70.4656 15.4038C70.4661 15.4043 70.4667 15.4048 70.4673 15.4052C70.7316 15.6244 70.9289 15.9136 71.0364 16.2398C71.1441 16.5667 71.1573 16.9173 71.0744 17.2514L71.0733 17.2559L69.5964 23.076C69.5647 23.1998 69.6083 23.2956 69.6883 23.3564C69.7292 23.3875 69.7705 23.4008 69.8031 23.4031C69.8302 23.405 69.8675 23.4011 69.9195 23.3681L75.0494 20.1195C75.0499 20.1192 75.0503 20.1189 75.0508 20.1186C75.3347 19.9385 75.6639 19.8428 76.0002 19.8428C76.3367 19.8428 76.6663 19.9386 76.9504 20.1192C76.9502 20.119 76.9506 20.1193 76.9504 20.1192L82.4607 23.6178C82.4605 23.6176 82.461 23.6179 82.4607 23.6178C82.4707 23.624 82.4772 23.6264 82.479 23.627C82.4813 23.6265 82.4889 23.6244 82.4993 23.6165C82.5125 23.6065 82.521 23.594 82.5248 23.5837C82.5265 23.5791 82.5277 23.5741 82.528 23.5679C82.5284 23.562 82.5282 23.551 82.5239 23.5338C82.5239 23.5337 82.5239 23.5338 82.5239 23.5338L80.9259 17.2514C80.843 16.9173 80.8562 16.5667 80.9639 16.2398C81.0714 15.9136 81.2687 15.6243 81.5332 15.4051C81.5337 15.4047 81.5342 15.4043 81.5348 15.4038L86.4771 11.2816C86.4873 11.2731 86.4916 11.267 86.4935 11.2641C86.4955 11.2609 86.4972 11.2571 86.4986 11.2519C86.5017 11.2401 86.5028 11.2198 86.4955 11.1962C86.4883 11.1728 86.4775 11.1614 86.4743 11.1587C86.4733 11.1578 86.4729 11.1577 86.4726 11.1575C86.4725 11.1575 86.4674 11.1553 86.4547 11.1545C86.4546 11.1545 86.4548 11.1545 86.4547 11.1545L80.0072 10.7392C80.0061 10.7391 80.0051 10.7391 80.004 10.739C79.6594 10.7183 79.3281 10.598 79.0505 10.3927C78.7751 10.189 78.5644 9.9104 78.4432 9.59024L76.0401 3.53859C76.0369 3.53069 76.0339 3.52275 76.031 3.51476C76.0287 3.50843 76.0245 3.50297 76.019 3.4991C76.0135 3.49524 76.0069 3.49316 76.0002 3.49316Z" fill="#8381D9"/>
</g>
<g clip-path="url(#clip6_553_7724)">
<path fill-rule="evenodd" clip-rule="evenodd" d="M105.977 2.06568C106.277 1.85577 106.634 1.74316 107 1.74316C107.366 1.74316 107.723 1.85577 108.023 2.06568C108.319 2.27275 108.544 2.56462 108.67 2.90259L111.073 8.95209L111.08 8.97078C111.082 8.97676 111.086 8.98196 111.091 8.98575C111.096 8.98954 111.102 8.99176 111.109 8.99213L111.114 8.99244L117.567 9.40809C119.242 9.51686 119.815 11.6138 118.596 12.6273C118.596 12.6275 118.595 12.6277 118.595 12.6278L113.653 16.7501L113.65 16.7525C113.639 16.7617 113.631 16.7738 113.626 16.7875C113.622 16.8009 113.621 16.8152 113.624 16.8288C113.624 16.8292 113.624 16.8296 113.624 16.8299L115.22 23.1031C115.606 24.6281 113.96 26.0015 112.527 25.0979L112.525 25.0965L107.012 21.5965C107.009 21.5943 107.004 21.5928 107 21.5928C106.996 21.5928 106.992 21.594 106.988 21.5962L106.987 21.5971L101.859 24.8445C101.859 24.8447 101.858 24.8448 101.858 24.845C100.287 25.8441 98.4716 24.3251 98.9006 22.6436C98.9006 22.6438 98.9007 22.6433 98.9006 22.6436L100.376 16.8299C100.376 16.8296 100.376 16.8293 100.376 16.8289C100.379 16.8152 100.379 16.8009 100.374 16.7875C100.37 16.7738 100.362 16.7617 100.35 16.7525L100.348 16.7501L95.4052 12.6278C95.4049 12.6276 95.4047 12.6275 95.4045 12.6273C94.1854 11.6138 94.7574 9.51689 96.4325 9.40812L102.892 8.99211C102.898 8.99174 102.904 8.98954 102.909 8.98575C102.914 8.98196 102.918 8.97676 102.92 8.97078L102.928 8.95209L105.33 2.90259C105.456 2.56462 105.682 2.27275 105.977 2.06568ZM107 3.49316C106.993 3.49316 106.987 3.49524 106.981 3.4991C106.976 3.50296 106.972 3.50843 106.969 3.51476C106.966 3.52275 106.963 3.53069 106.96 3.53859L104.557 9.59024C104.436 9.9104 104.225 10.189 103.95 10.3927C103.672 10.598 103.341 10.7183 102.996 10.739L96.5459 11.1544C96.5458 11.1544 96.546 11.1544 96.5459 11.1544C96.5332 11.1553 96.5279 11.1575 96.5278 11.1575C96.5274 11.1577 96.5271 11.1578 96.526 11.1587C96.5228 11.1614 96.512 11.1728 96.5048 11.1962C96.4975 11.2198 96.4986 11.2401 96.5017 11.2519C96.5031 11.2571 96.5048 11.2609 96.5068 11.2641C96.5087 11.267 96.513 11.2731 96.5233 11.2816L96.5247 11.2828L101.466 15.4038C101.466 15.4043 101.467 15.4048 101.467 15.4052C101.732 15.6244 101.929 15.9136 102.036 16.2398C102.144 16.5667 102.157 16.9173 102.074 17.2514L102.073 17.2559L100.596 23.076C100.565 23.1998 100.608 23.2956 100.688 23.3564C100.729 23.3875 100.77 23.4008 100.803 23.4031C100.83 23.405 100.868 23.4011 100.919 23.3681L106.049 20.1195C106.05 20.1192 106.05 20.1189 106.051 20.1186C106.335 19.9385 106.664 19.8428 107 19.8428C107.337 19.8428 107.666 19.9386 107.95 20.1192C107.95 20.119 107.951 20.1193 107.95 20.1192L113.461 23.6178C113.46 23.6176 113.461 23.6179 113.461 23.6178C113.471 23.624 113.477 23.6264 113.479 23.627C113.481 23.6265 113.489 23.6244 113.499 23.6165C113.513 23.6065 113.521 23.594 113.525 23.5837C113.527 23.5791 113.528 23.5741 113.528 23.5679C113.528 23.562 113.528 23.551 113.524 23.5338C113.524 23.5337 113.524 23.5338 113.524 23.5338L111.926 17.2514C111.843 16.9173 111.856 16.5667 111.964 16.2398C112.071 15.9136 112.269 15.6243 112.533 15.4051C112.534 15.4047 112.534 15.4043 112.535 15.4038L117.477 11.2816C117.487 11.2731 117.492 11.267 117.493 11.2641C117.496 11.2609 117.497 11.2571 117.499 11.2519C117.502 11.2401 117.503 11.2198 117.496 11.1962C117.488 11.1728 117.478 11.1614 117.474 11.1587C117.473 11.1578 117.473 11.1577 117.473 11.1575C117.472 11.1575 117.467 11.1553 117.455 11.1545C117.455 11.1545 117.455 11.1545 117.455 11.1545L111.007 10.7392C111.006 10.7391 111.005 10.7391 111.004 10.739C110.659 10.7183 110.328 10.598 110.05 10.3927C109.775 10.189 109.564 9.9104 109.443 9.59024L107.04 3.53859C107.037 3.53069 107.034 3.52275 107.031 3.51476C107.029 3.50843 107.025 3.50297 107.019 3.4991C107.013 3.49524 107.007 3.49316 107 3.49316Z" fill="#8381D9"/>
</g>
<g clip-path="url(#clip7_553_7724)">
<path fill-rule="evenodd" clip-rule="evenodd" d="M105.977 2.06568C106.277 1.85577 106.634 1.74316 107 1.74316C107.366 1.74316 107.723 1.85577 108.023 2.06568C108.319 2.27275 108.544 2.56462 108.67 2.90259L111.073 8.95209L111.08 8.97078C111.082 8.97676 111.086 8.98196 111.091 8.98575C111.096 8.98954 111.102 8.99176 111.109 8.99213L111.114 8.99244L117.567 9.40809C119.242 9.51686 119.815 11.6138 118.596 12.6273C118.596 12.6275 118.595 12.6277 118.595 12.6278L113.653 16.7501L113.65 16.7525C113.639 16.7617 113.631 16.7738 113.626 16.7875C113.622 16.8009 113.621 16.8152 113.624 16.8288C113.624 16.8292 113.624 16.8296 113.624 16.8299L115.22 23.1031C115.606 24.6281 113.96 26.0015 112.527 25.0979L112.525 25.0965L107.012 21.5965C107.009 21.5943 107.004 21.5928 107 21.5928C106.996 21.5928 106.992 21.594 106.988 21.5962L106.987 21.5971L101.859 24.8445C101.859 24.8447 101.858 24.8448 101.858 24.845C100.287 25.8441 98.4716 24.3251 98.9006 22.6436C98.9006 22.6438 98.9007 22.6433 98.9006 22.6436L100.376 16.8299C100.376 16.8296 100.376 16.8293 100.376 16.8289C100.379 16.8152 100.379 16.8009 100.374 16.7875C100.37 16.7738 100.362 16.7617 100.35 16.7525L100.348 16.7501L95.4052 12.6278C95.4049 12.6276 95.4047 12.6275 95.4045 12.6273C94.1854 11.6138 94.7574 9.51689 96.4325 9.40812L102.892 8.99211C102.898 8.99174 102.904 8.98954 102.909 8.98575C102.914 8.98196 102.918 8.97676 102.92 8.97078L102.928 8.95209L105.33 2.90259C105.456 2.56462 105.682 2.27275 105.977 2.06568ZM107 3.49316C106.993 3.49316 106.987 3.49524 106.981 3.4991C106.976 3.50296 106.972 3.50843 106.969 3.51476C106.966 3.52275 106.963 3.53069 106.96 3.53859L104.557 9.59024C104.436 9.9104 104.225 10.189 103.95 10.3927C103.672 10.598 103.341 10.7183 102.996 10.739L96.5459 11.1544C96.5458 11.1544 96.546 11.1544 96.5459 11.1544C96.5332 11.1553 96.5279 11.1575 96.5278 11.1575C96.5274 11.1577 96.5271 11.1578 96.526 11.1587C96.5228 11.1614 96.512 11.1728 96.5048 11.1962C96.4975 11.2198 96.4986 11.2401 96.5017 11.2519C96.5031 11.2571 96.5048 11.2609 96.5068 11.2641C96.5087 11.267 96.513 11.2731 96.5233 11.2816L96.5247 11.2828L101.466 15.4038C101.466 15.4043 101.467 15.4048 101.467 15.4052C101.732 15.6244 101.929 15.9136 102.036 16.2398C102.144 16.5667 102.157 16.9173 102.074 17.2514L102.073 17.2559L100.596 23.076C100.565 23.1998 100.608 23.2956 100.688 23.3564C100.729 23.3875 100.77 23.4008 100.803 23.4031C100.83 23.405 100.868 23.4011 100.919 23.3681L106.049 20.1195C106.05 20.1192 106.05 20.1189 106.051 20.1186C106.335 19.9385 106.664 19.8428 107 19.8428C107.337 19.8428 107.666 19.9386 107.95 20.1192C107.95 20.119 107.951 20.1193 107.95 20.1192L113.461 23.6178C113.46 23.6176 113.461 23.6179 113.461 23.6178C113.471 23.624 113.477 23.6264 113.479 23.627C113.481 23.6265 113.489 23.6244 113.499 23.6165C113.513 23.6065 113.521 23.594 113.525 23.5837C113.527 23.5791 113.528 23.5741 113.528 23.5679C113.528 23.562 113.528 23.551 113.524 23.5338C113.524 23.5337 113.524 23.5338 113.524 23.5338L111.926 17.2514C111.843 16.9173 111.856 16.5667 111.964 16.2398C112.071 15.9136 112.269 15.6243 112.533 15.4051C112.534 15.4047 112.534 15.4043 112.535 15.4038L117.477 11.2816C117.487 11.2731 117.492 11.267 117.493 11.2641C117.496 11.2609 117.497 11.2571 117.499 11.2519C117.502 11.2401 117.503 11.2198 117.496 11.1962C117.488 11.1728 117.478 11.1614 117.474 11.1587C117.473 11.1578 117.473 11.1577 117.473 11.1575C117.472 11.1575 117.467 11.1553 117.455 11.1545C117.455 11.1545 117.455 11.1545 117.455 11.1545L111.007 10.7392C111.006 10.7391 111.005 10.7391 111.004 10.739C110.659 10.7183 110.328 10.598 110.05 10.3927C109.775 10.189 109.564 9.9104 109.443 9.59024L107.04 3.53859C107.037 3.53069 107.034 3.52275 107.031 3.51476C107.029 3.50843 107.025 3.50297 107.019 3.4991C107.013 3.49524 107.007 3.49316 107 3.49316Z" fill="#8381D9"/>
</g>
<g clip-path="url(#clip8_553_7724)">
<path fill-rule="evenodd" clip-rule="evenodd" d="M136.977 2.06568C137.277 1.85577 137.634 1.74316 138 1.74316C138.366 1.74316 138.723 1.85577 139.023 2.06568C139.319 2.27275 139.544 2.56462 139.67 2.90259L142.073 8.95209L142.08 8.97078C142.082 8.97676 142.086 8.98196 142.091 8.98575C142.096 8.98954 142.102 8.99176 142.109 8.99213L142.114 8.99244L148.567 9.40809C150.242 9.51686 150.815 11.6138 149.596 12.6273C149.596 12.6275 149.595 12.6277 149.595 12.6278L144.653 16.7501L144.65 16.7525C144.639 16.7617 144.631 16.7738 144.626 16.7875C144.622 16.8009 144.621 16.8152 144.624 16.8288C144.624 16.8292 144.624 16.8296 144.624 16.8299L146.22 23.1031C146.606 24.6281 144.96 26.0015 143.527 25.0979L143.525 25.0965L138.012 21.5965C138.009 21.5943 138.004 21.5928 138 21.5928C137.996 21.5928 137.992 21.594 137.988 21.5962L137.987 21.5971L132.859 24.8445C132.859 24.8447 132.858 24.8448 132.858 24.845C131.287 25.8441 129.472 24.3251 129.901 22.6436C129.901 22.6438 129.901 22.6433 129.901 22.6436L131.376 16.8299C131.376 16.8296 131.376 16.8293 131.376 16.8289C131.379 16.8152 131.379 16.8009 131.374 16.7875C131.37 16.7738 131.362 16.7617 131.35 16.7525L131.348 16.7501L126.405 12.6278C126.405 12.6276 126.405 12.6275 126.404 12.6273C125.185 11.6138 125.757 9.51689 127.433 9.40812L133.892 8.99211C133.898 8.99174 133.904 8.98954 133.909 8.98575C133.914 8.98196 133.918 8.97676 133.92 8.97078L133.928 8.95209L136.33 2.90259C136.456 2.56462 136.682 2.27275 136.977 2.06568ZM138 3.49316C137.993 3.49316 137.987 3.49524 137.981 3.4991C137.976 3.50296 137.972 3.50843 137.969 3.51476C137.966 3.52275 137.963 3.53069 137.96 3.53859L135.557 9.59024C135.436 9.9104 135.225 10.189 134.95 10.3927C134.672 10.598 134.341 10.7183 133.996 10.739L127.546 11.1544C127.546 11.1544 127.546 11.1544 127.546 11.1544C127.533 11.1553 127.528 11.1575 127.528 11.1575C127.527 11.1577 127.527 11.1578 127.526 11.1587C127.523 11.1614 127.512 11.1728 127.505 11.1962C127.498 11.2198 127.499 11.2401 127.502 11.2519C127.503 11.2571 127.505 11.2609 127.507 11.2641C127.509 11.267 127.513 11.2731 127.523 11.2816L127.525 11.2828L132.466 15.4038C132.466 15.4043 132.467 15.4048 132.467 15.4052C132.732 15.6244 132.929 15.9136 133.036 16.2398C133.144 16.5667 133.157 16.9173 133.074 17.2514L133.073 17.2559L131.596 23.076C131.565 23.1998 131.608 23.2956 131.688 23.3564C131.729 23.3875 131.77 23.4008 131.803 23.4031C131.83 23.405 131.868 23.4011 131.919 23.3681L137.049 20.1195C137.05 20.1192 137.05 20.1189 137.051 20.1186C137.335 19.9385 137.664 19.8428 138 19.8428C138.337 19.8428 138.666 19.9386 138.95 20.1192C138.95 20.119 138.951 20.1193 138.95 20.1192L144.461 23.6178C144.46 23.6176 144.461 23.6179 144.461 23.6178C144.471 23.624 144.477 23.6264 144.479 23.627C144.481 23.6265 144.489 23.6244 144.499 23.6165C144.513 23.6065 144.521 23.594 144.525 23.5837C144.527 23.5791 144.528 23.5741 144.528 23.5679C144.528 23.562 144.528 23.551 144.524 23.5338C144.524 23.5337 144.524 23.5338 144.524 23.5338L142.926 17.2514C142.843 16.9173 142.856 16.5667 142.964 16.2398C143.071 15.9136 143.269 15.6243 143.533 15.4051C143.534 15.4047 143.534 15.4043 143.535 15.4038L148.477 11.2816C148.487 11.2731 148.492 11.267 148.493 11.2641C148.496 11.2609 148.497 11.2571 148.499 11.2519C148.502 11.2401 148.503 11.2198 148.496 11.1962C148.488 11.1728 148.478 11.1614 148.474 11.1587C148.473 11.1578 148.473 11.1577 148.473 11.1575C148.472 11.1575 148.467 11.1553 148.455 11.1545C148.455 11.1545 148.455 11.1545 148.455 11.1545L142.007 10.7392C142.006 10.7391 142.005 10.7391 142.004 10.739C141.659 10.7183 141.328 10.598 141.05 10.3927C140.775 10.189 140.564 9.9104 140.443 9.59024L138.04 3.53859C138.037 3.53069 138.034 3.52275 138.031 3.51476C138.029 3.50843 138.025 3.50297 138.019 3.4991C138.013 3.49524 138.007 3.49316 138 3.49316Z" fill="#8381D9"/>
</g>
<g clip-path="url(#clip9_553_7724)">
<path fill-rule="evenodd" clip-rule="evenodd" d="M136.977 2.06568C137.277 1.85577 137.634 1.74316 138 1.74316C138.366 1.74316 138.723 1.85577 139.023 2.06568C139.319 2.27275 139.544 2.56462 139.67 2.90259L142.073 8.95209L142.08 8.97078C142.082 8.97676 142.086 8.98196 142.091 8.98575C142.096 8.98954 142.102 8.99176 142.109 8.99213L142.114 8.99244L148.567 9.40809C150.242 9.51686 150.815 11.6138 149.596 12.6273C149.596 12.6275 149.595 12.6277 149.595 12.6278L144.653 16.7501L144.65 16.7525C144.639 16.7617 144.631 16.7738 144.626 16.7875C144.622 16.8009 144.621 16.8152 144.624 16.8288C144.624 16.8292 144.624 16.8296 144.624 16.8299L146.22 23.1031C146.606 24.6281 144.96 26.0015 143.527 25.0979L143.525 25.0965L138.012 21.5965C138.009 21.5943 138.004 21.5928 138 21.5928C137.996 21.5928 137.992 21.594 137.988 21.5962L137.987 21.5971L132.859 24.8445C132.859 24.8447 132.858 24.8448 132.858 24.845C131.287 25.8441 129.472 24.3251 129.901 22.6436C129.901 22.6438 129.901 22.6433 129.901 22.6436L131.376 16.8299C131.376 16.8296 131.376 16.8293 131.376 16.8289C131.379 16.8152 131.379 16.8009 131.374 16.7875C131.37 16.7738 131.362 16.7617 131.35 16.7525L131.348 16.7501L126.405 12.6278C126.405 12.6276 126.405 12.6275 126.404 12.6273C125.185 11.6138 125.757 9.51689 127.433 9.40812L133.892 8.99211C133.898 8.99174 133.904 8.98954 133.909 8.98575C133.914 8.98196 133.918 8.97676 133.92 8.97078L133.928 8.95209L136.33 2.90259C136.456 2.56462 136.682 2.27275 136.977 2.06568ZM138 3.49316C137.993 3.49316 137.987 3.49524 137.981 3.4991C137.976 3.50296 137.972 3.50843 137.969 3.51476C137.966 3.52275 137.963 3.53069 137.96 3.53859L135.557 9.59024C135.436 9.9104 135.225 10.189 134.95 10.3927C134.672 10.598 134.341 10.7183 133.996 10.739L127.546 11.1544C127.546 11.1544 127.546 11.1544 127.546 11.1544C127.533 11.1553 127.528 11.1575 127.528 11.1575C127.527 11.1577 127.527 11.1578 127.526 11.1587C127.523 11.1614 127.512 11.1728 127.505 11.1962C127.498 11.2198 127.499 11.2401 127.502 11.2519C127.503 11.2571 127.505 11.2609 127.507 11.2641C127.509 11.267 127.513 11.2731 127.523 11.2816L127.525 11.2828L132.466 15.4038C132.466 15.4043 132.467 15.4048 132.467 15.4052C132.732 15.6244 132.929 15.9136 133.036 16.2398C133.144 16.5667 133.157 16.9173 133.074 17.2514L133.073 17.2559L131.596 23.076C131.565 23.1998 131.608 23.2956 131.688 23.3564C131.729 23.3875 131.77 23.4008 131.803 23.4031C131.83 23.405 131.868 23.4011 131.919 23.3681L137.049 20.1195C137.05 20.1192 137.05 20.1189 137.051 20.1186C137.335 19.9385 137.664 19.8428 138 19.8428C138.337 19.8428 138.666 19.9386 138.95 20.1192C138.95 20.119 138.951 20.1193 138.95 20.1192L144.461 23.6178C144.46 23.6176 144.461 23.6179 144.461 23.6178C144.471 23.624 144.477 23.6264 144.479 23.627C144.481 23.6265 144.489 23.6244 144.499 23.6165C144.513 23.6065 144.521 23.594 144.525 23.5837C144.527 23.5791 144.528 23.5741 144.528 23.5679C144.528 23.562 144.528 23.551 144.524 23.5338C144.524 23.5337 144.524 23.5338 144.524 23.5338L142.926 17.2514C142.843 16.9173 142.856 16.5667 142.964 16.2398C143.071 15.9136 143.269 15.6243 143.533 15.4051C143.534 15.4047 143.534 15.4043 143.535 15.4038L148.477 11.2816C148.487 11.2731 148.492 11.267 148.493 11.2641C148.496 11.2609 148.497 11.2571 148.499 11.2519C148.502 11.2401 148.503 11.2198 148.496 11.1962C148.488 11.1728 148.478 11.1614 148.474 11.1587C148.473 11.1578 148.473 11.1577 148.473 11.1575C148.472 11.1575 148.467 11.1553 148.455 11.1545C148.455 11.1545 148.455 11.1545 148.455 11.1545L142.007 10.7392C142.006 10.7391 142.005 10.7391 142.004 10.739C141.659 10.7183 141.328 10.598 141.05 10.3927C140.775 10.189 140.564 9.9104 140.443 9.59024L138.04 3.53859C138.037 3.53069 138.034 3.52275 138.031 3.51476C138.029 3.50843 138.025 3.50297 138.019 3.4991C138.013 3.49524 138.007 3.49316 138 3.49316Z" fill="#8381D9"/>
</g>
<defs>
<clipPath id="clip0_553_7724">
<rect width="14" height="28" fill="white"/>
</clipPath>
<clipPath id="clip1_553_7724">
<rect width="14" height="28" fill="white" transform="translate(14)"/>
</clipPath>
<clipPath id="clip2_553_7724">
<rect width="14" height="28" fill="white" transform="translate(31)"/>
</clipPath>
<clipPath id="clip3_553_7724">
<rect width="14" height="28" fill="white" transform="translate(45)"/>
</clipPath>
<clipPath id="clip4_553_7724">
<rect width="14" height="28" fill="white" transform="translate(62)"/>
</clipPath>
<clipPath id="clip5_553_7724">
<rect width="14" height="28" fill="white" transform="translate(76)"/>
</clipPath>
<clipPath id="clip6_553_7724">
<rect width="14" height="28" fill="white" transform="translate(93)"/>
</clipPath>
<clipPath id="clip7_553_7724">
<rect width="14" height="28" fill="white" transform="translate(107)"/>
</clipPath>
<clipPath id="clip8_553_7724">
<rect width="14" height="28" fill="white" transform="translate(124)"/>
</clipPath>
<clipPath id="clip9_553_7724">
<rect width="14" height="28" fill="white" transform="translate(138)"/>
</clipPath>
</defs>
</svg>
